# Blender v2.77 (sub 0) OBJ File: ''
# www.blender.org
mtllib cloud.mtl
o Icosphere_Icosphere.002
v -0.197892 -0.320207 0.609061
v 0.197892 0.320207 0.609060
v -0.518099 0.320207 0.376417
v -0.518099 0.320207 -0.376417
v 0.197892 0.320207 -0.609061
v 0.640405 0.320204 -0.000000
v 0.000000 0.715995 -0.000000
v 0.158485 -0.448342 0.533717
v 0.615902 -0.361744 0.192078
v 0.412401 -0.478478 0.000000
v -0.611176 -0.361743 0.206623
v -0.333643 -0.478478 -0.242401
v -0.385373 -0.361744 -0.517414
v 0.373004 -0.361745 -0.526400
v 0.680952 0.000000 0.221251
v 0.680952 -0.000000 -0.221251
v 0.000000 0.000000 0.715995
v 0.420851 0.000000 0.579252
v -0.680952 0.000000 0.221251
v -0.420851 0.000000 0.579252
v -0.420851 -0.000000 -0.579252
v -0.680952 -0.000000 -0.221251
v 0.420851 -0.000000 -0.579252
v 0.000000 -0.000000 -0.715995
v 0.492740 0.376424 0.357995
v -0.188213 0.376426 0.579248
v -0.609059 0.376424 -0.000000
v -0.188213 0.376425 -0.579248
v 0.492740 0.376424 -0.357995
v 0.116317 0.609064 0.357994
v 0.376420 0.609062 -0.000000
v -0.304529 0.609064 0.221250
v -0.304529 0.609064 -0.221251
v 0.116317 0.609064 -0.357994
v -0.876924 -0.240444 -0.441554
v -0.460598 -0.240443 -0.131470
v -0.838803 0.494422 0.133441
v -0.773682 -0.299716 0.365308
v -0.599887 -0.320343 0.000000
v -1.300486 -0.240442 0.141425
v -1.190240 -0.295770 -0.223832
v -0.438042 -0.149633 0.201839
v -0.468283 -0.019105 -0.300699
v -0.936882 -0.149633 0.484752
v -0.594103 0.007157 0.396475
v -1.170216 0.007157 0.396475
v -1.393739 -0.019106 0.000000
v -1.040247 -0.019106 -0.486541
v -0.626565 0.263852 0.354815
v -1.140626 0.263851 0.352727
v -1.297495 0.263851 -0.136815
v -0.880387 0.263853 -0.437286
v -0.465728 0.263852 -0.133441
v -0.716074 0.476473 -0.120668
v -1.087453 0.476472 -0.000000
v 1.338160 -0.149633 -0.201839
v 0.937400 0.494422 0.133441
v 0.899278 -0.240443 0.441554
v 1.315604 -0.240443 0.131470
v 1.176315 -0.320343 0.000000
v 0.665677 -0.320343 0.165914
v 0.475716 -0.240442 0.141425
v 0.630270 -0.240443 -0.354149
v 1.002520 -0.299716 -0.365308
v 1.360128 0.007157 0.151438
v 1.052131 0.033420 0.486541
v 0.605986 0.007157 0.396475
v 0.605986 0.007157 -0.396475
v 0.382463 -0.019106 0.000000
v 1.052130 0.033420 -0.486541
v 1.149637 0.263852 0.354815
v 0.635576 0.263851 0.352728
v 0.478707 0.263851 -0.136815
v 0.895816 0.263852 -0.437286
v 1.310475 0.263851 -0.133441
v 1.060129 0.476473 -0.120668
v 0.688748 0.476472 -0.000000
vn -0.015900 -0.998700 0.048800
vn 0.069700 -0.354500 0.932500
vn 0.794400 -0.189400 0.577100
vn -0.306600 -0.125600 0.943500
vn -0.981900 -0.189400 0.000000
vn -0.303400 -0.189400 -0.933800
vn 0.794400 -0.189400 -0.577100
vn 0.408900 0.661700 0.628400
vn -0.471300 0.661700 0.583100
vn -0.700200 0.661700 -0.268000
vn 0.038500 0.661700 -0.748800
vn 0.724000 0.661700 -0.194700
vn 0.268000 0.943500 -0.194700
vn 0.491100 0.794700 -0.356800
vn 0.408900 0.661700 -0.628400
vn -0.102400 0.943500 -0.315100
vn -0.187600 0.794700 -0.577300
vn -0.471300 0.661700 -0.583100
vn -0.331300 0.943500 -0.000000
vn -0.607100 0.794700 -0.000000
vn -0.700200 0.661700 0.268000
vn -0.102400 0.943500 0.315100
vn -0.187600 0.794700 0.577300
vn 0.038500 0.661700 0.748800
vn 0.268000 0.943500 0.194700
vn 0.491100 0.794700 0.356800
vn 0.724000 0.661700 0.194700
vn 0.889700 0.330400 -0.315100
vn 0.794700 0.187600 -0.577300
vn 0.574600 0.330400 -0.748800
vn -0.024700 0.330400 -0.943500
vn -0.303500 0.187600 -0.934200
vn -0.534600 0.330400 -0.777900
vn -0.905000 0.330400 -0.268000
vn -0.982200 0.187600 -0.000000
vn -0.905000 0.330400 0.268000
vn -0.534600 0.330400 0.777900
vn -0.303500 0.187600 0.934200
vn -0.024700 0.330400 0.943500
vn 0.574600 0.330400 0.748800
vn 0.794700 0.187600 0.577300
vn 0.889700 0.330400 0.315100
vn 0.306600 0.125600 -0.943500
vn 0.304100 -0.177000 -0.936000
vn -0.010400 -0.472600 -0.881200
vn -0.802600 0.125600 -0.583100
vn -0.796200 -0.177000 -0.578500
vn -0.841300 -0.472600 -0.262400
vn -0.802600 0.125600 0.583100
vn -0.796200 -0.177000 0.578500
vn -0.627600 -0.373400 0.683100
vn 0.306600 0.125600 0.943500
vn 0.297800 -0.267300 0.916400
vn 0.593200 -0.417100 0.688600
vn 0.992100 0.125600 -0.000000
vn 0.984200 -0.177000 0.000000
vn 0.834900 -0.472600 -0.282200
vn 0.071800 -0.972600 -0.221100
vn -0.004600 -0.920800 -0.390000
vn -0.634400 -0.747200 -0.197900
vn -0.172000 -0.974100 0.146900
vn -0.250400 -0.902500 0.350300
vn 0.629500 -0.747300 -0.212800
vn 0.330500 -0.920300 0.209200
vn 0.606500 -0.776600 0.170500
vn -0.053300 -0.998100 0.031000
vn -0.441800 -0.480100 -0.757800
vn 0.513900 -0.509700 -0.690000
vn 0.474100 0.597100 -0.647000
vn -0.027100 0.996100 -0.083500
vn -0.159800 0.855900 -0.491800
vn -0.393300 0.739800 -0.545900
vn -0.763900 0.597100 0.244800
vn -0.305700 0.835100 0.457300
vn -0.002900 0.691200 0.722700
vn 0.594100 0.770100 0.232500
vn 0.639100 0.739800 0.210500
vn 0.534600 0.426400 -0.729600
vn -0.528700 0.426400 -0.733900
vn -0.861400 0.426400 0.276000
vn -0.233500 0.189500 0.953700
vn -0.003900 0.302400 0.953200
vn 0.834900 0.189500 0.516800
vn 0.905300 0.302400 0.298200
vn 0.309000 -0.009000 -0.951000
vn 0.308800 0.034700 -0.950500
vn -0.809000 -0.009000 -0.587800
vn -0.803300 -0.118700 -0.583600
vn -0.857300 -0.480100 -0.186000
vn -0.861900 0.180100 0.474000
vn -0.868500 -0.050900 0.493000
vn -0.558900 -0.433900 0.706700
vn 0.168000 0.178600 0.969500
vn 0.365300 -0.303200 0.880100
vn 0.538400 -0.390900 0.746600
vn 0.998300 0.023000 -0.054100
vn 0.997900 -0.014100 -0.063700
vn 0.233000 -0.920800 -0.312800
vn 0.034700 -0.979400 -0.199000
vn -0.154100 -0.982700 0.102400
vn -0.318000 -0.777500 0.542500
vn 0.503700 -0.815300 0.285700
vn -0.015900 -0.998700 -0.048800
vn 0.533400 -0.358300 -0.766200
vn 0.716600 -0.183100 0.673000
vn -0.194700 -0.052300 0.979500
vn -0.184200 -0.183100 -0.965700
vn 0.745400 0.157100 -0.647900
vn 0.512800 0.497400 -0.699800
vn -0.201400 0.072100 -0.976800
vn -0.516200 0.468900 -0.716600
vn -0.205000 0.187400 0.960700
vn -0.003500 0.497400 0.867500
vn 0.737100 0.072200 0.671900
vn 0.838900 0.468900 0.276300
vn -0.080800 -0.330200 -0.940400
vn -0.871200 0.060800 -0.487100
vn -0.853900 -0.167900 -0.492500
vn -0.821300 -0.509700 -0.256100
vn -0.509500 -0.472600 0.719000
vn 0.541600 -0.421700 0.727200
vn 0.991700 0.082700 -0.098400
vn 0.983800 -0.178400 0.018000
vn 0.503700 -0.815300 -0.285700
vn -0.159800 -0.977300 -0.139300
vn -0.372300 -0.920800 -0.116100
vn -0.384200 -0.747300 0.542200
vn 0.606500 -0.776600 -0.170500
vn 0.071800 -0.972600 0.221100
vn 0.233000 -0.920800 0.312800
usemtl white
s 1
f 8//1 12//1 10//1
f 1//2 8//2 17//2
f 9//3 15//3 18//3
f 1//4 17//4 20//4
f 11//5 19//5 22//5
f 13//6 21//6 24//6
f 14//7 23//7 16//7
f 2//8 25//8 30//8
f 3//9 26//9 32//9
f 4//10 27//10 33//10
f 5//11 28//11 34//11
f 6//12 29//12 31//12
f 31//13 34//13 7//13
f 31//14 29//14 34//14
f 29//15 5//15 34//15
f 34//16 33//16 7//16
f 34//17 28//17 33//17
f 28//18 4//18 33//18
f 33//19 32//19 7//19
f 33//20 27//20 32//20
f 27//21 3//21 32//21
f 32//22 30//22 7//22
f 32//23 26//23 30//23
f 26//24 2//24 30//24
f 30//25 31//25 7//25
f 30//26 25//26 31//26
f 25//27 6//27 31//27
f 16//28 29//28 6//28
f 16//29 23//29 29//29
f 23//30 5//30 29//30
f 24//31 28//31 5//31
f 24//32 21//32 28//32
f 21//33 4//33 28//33
f 22//34 27//34 4//34
f 22//35 19//35 27//35
f 19//36 3//36 27//36
f 20//37 26//37 3//37
f 20//38 17//38 26//38
f 17//39 2//39 26//39
f 18//40 25//40 2//40
f 18//41 15//41 25//41
f 15//42 6//42 25//42
f 23//43 24//43 5//43
f 23//44 14//44 24//44
f 14//45 13//45 24//45
f 21//46 22//46 4//46
f 21//47 13//47 22//47
f 13//48 11//48 22//48
f 19//49 20//49 3//49
f 19//50 11//50 20//50
f 11//51 1//51 20//51
f 17//52 18//52 2//52
f 17//53 8//53 18//53
f 8//54 9//54 18//54
f 15//55 16//55 6//55
f 15//56 9//56 16//56
f 9//57 14//57 16//57
f 10//58 12//58 14//58
f 12//59 13//59 14//59
f 12//60 11//60 13//60
f 12//61 8//61 11//61
f 8//62 1//62 11//62
f 9//63 10//63 14//63
f 10//64 9//64 8//64
f 42//65 39//65 36//65
f 38//66 41//66 39//66
f 35//67 41//67 48//67
f 36//68 35//68 43//68
f 53//69 52//69 54//69
f 54//70 55//70 37//70
f 54//71 52//71 55//71
f 52//72 51//72 55//72
f 51//73 50//73 55//73
f 55//74 50//74 37//74
f 50//75 49//75 37//75
f 37//76 49//76 54//76
f 49//77 53//77 54//77
f 43//78 52//78 53//78
f 48//79 51//79 52//79
f 47//80 50//80 51//80
f 46//81 44//81 50//81
f 44//82 49//82 50//82
f 45//83 42//83 49//83
f 42//84 53//84 49//84
f 43//85 48//85 52//85
f 43//86 35//86 48//86
f 48//87 47//87 51//87
f 48//88 41//88 47//88
f 41//89 40//89 47//89
f 47//90 46//90 50//90
f 47//91 40//91 46//91
f 40//92 44//92 46//92
f 44//93 45//93 49//93
f 44//94 38//94 45//94
f 38//95 42//95 45//95
f 42//96 43//96 53//96
f 42//97 36//97 43//97
f 39//98 35//98 36//98
f 39//99 41//99 35//99
f 41//100 38//100 40//100
f 38//101 44//101 40//101
f 39//102 42//102 38//102
f 64//103 60//103 61//103
f 56//104 64//104 70//104
f 59//105 65//105 66//105
f 58//106 66//106 67//106
f 63//107 68//107 70//107
f 75//69 74//69 76//69
f 76//70 77//70 57//70
f 76//71 74//71 77//71
f 74//72 73//72 77//72
f 73//73 72//73 77//73
f 77//74 72//74 57//74
f 72//75 71//75 57//75
f 57//76 71//76 76//76
f 71//77 75//77 76//77
f 56//108 70//108 75//108
f 70//109 74//109 75//109
f 70//110 68//110 74//110
f 68//111 73//111 74//111
f 69//80 72//80 73//80
f 67//112 66//112 72//112
f 66//113 71//113 72//113
f 66//114 65//114 71//114
f 65//115 75//115 71//115
f 64//116 63//116 70//116
f 68//117 69//117 73//117
f 68//118 63//118 69//118
f 63//119 62//119 69//119
f 69//90 67//90 72//90
f 69//91 62//91 67//91
f 62//120 58//120 67//120
f 58//121 59//121 66//121
f 65//122 56//122 75//122
f 65//123 59//123 56//123
f 60//124 64//124 56//124
f 64//125 61//125 63//125
f 61//126 62//126 63//126
f 61//127 58//127 62//127
f 59//128 60//128 56//128
f 61//129 60//129 58//129
f 60//130 59//130 58//130
