# Blender v2.77 (sub 0) OBJ File: ''
# www.blender.org
mtllib surface.mtl
o Plane_Plane.001
v -5.311784 0.625476 5.043146
v 3.408064 0.506088 4.292924
v -4.676248 0.818244 -4.876284
v 4.594218 1.303716 -4.546430
v -0.293221 0.444923 3.916684
v -0.293221 0.444923 -4.163316
v 1.312561 0.506088 4.292924
v 2.498715 1.303716 -4.546430
v -2.714434 0.818244 -4.876284
v -3.349970 0.625476 5.043146
v -4.676248 0.818244 -2.761557
v 4.594218 1.303716 -2.431703
v -0.293221 0.444923 -2.048589
v 2.498715 1.303716 -2.431703
v -2.714434 0.818244 -2.761557
v -5.311784 0.625476 2.009192
v 3.408064 0.506088 1.258970
v -0.293221 0.444923 0.882730
v 1.312561 0.506088 1.258970
v -3.349970 0.625476 2.009192
vn 0.000000 1.000000 -0.000000
vn 0.152400 0.988300 0.000000
vn -0.294000 0.955800 0.000000
vn 0.000000 0.999200 0.040400
vn -0.038100 0.999300 0.000000
vn 0.077400 0.995700 0.050500
vn 0.000000 0.977400 0.211200
vn 0.059000 0.998300 0.000000
vn -0.277300 0.953600 0.117000
usemtl Yuzey.001
s off
f 12//1 8//1 14//1
f 15//2 6//2 9//2
f 14//3 6//3 13//3
f 15//1 3//1 11//1
f 20//4 11//4 16//4
f 19//5 13//5 18//5
f 18//6 15//6 20//6
f 17//7 14//7 19//7
f 2//1 19//1 7//1
f 5//8 20//8 10//8
f 5//5 19//5 18//5
f 10//1 16//1 1//1
f 12//1 4//1 8//1
f 15//2 13//2 6//2
f 14//3 8//3 6//3
f 15//1 9//1 3//1
f 20//4 15//4 11//4
f 19//9 14//9 13//9
f 18//2 13//2 15//2
f 17//7 12//7 14//7
f 2//1 17//1 19//1
f 5//8 18//8 20//8
f 5//5 7//5 19//5
f 10//1 20//1 16//1
